<svg width="160" viewBox="0 0 532 156" fill="none" xmlns="http://www.w3.org/2000/svg">
<path d="M276.65 124.45V84.45H287.18V124.86C287.18 127.17 288.18 127.86 289.08 127.86C289.515 127.875 289.95 127.824 290.37 127.71L291.63 135.64C289.946 136.296 288.146 136.603 286.34 136.54C279.12 136.61 276.65 131.8 276.65 124.45Z" fill="#0C419A"/>
<path d="M209.22 111.65C210.16 108.72 219.48 88.05 219.48 88.05H230.54V135.73H220.54V106.26L212.22 127.7H205.9L197.58 106.26V135.73H187.58V88.05H198.64C198.64 88.05 207.96 108.72 208.9 111.65H209.22Z" fill="#0C419A"/>
<path d="M296 125.66C296 118.02 302.42 113.77 316.47 112.26C316.26 109.08 314.25 107.12 310.39 107.12C307.39 107.12 304.44 108.4 300.99 110.4L297.25 103.34C301.752 100.343 307.013 98.6853 312.42 98.56C321.51 98.56 326.54 103.86 326.54 114.98V135.73H316.54V132.22C316.54 132.22 312.41 136.61 306.63 136.61C300.06 136.61 296 131.78 296 125.66ZM316.51 125.03V118.69C309.02 119.69 306.08 122.06 306.08 124.81C306.08 127.15 307.66 128.29 310.16 128.29C312.66 128.29 314.59 126.93 316.46 125L316.51 125.03Z" fill="#0C419A"/>
<path d="M237.92 125.66C237.92 118.02 244.33 113.77 258.39 112.26C258.17 109.08 256.17 107.12 252.31 107.12C249.31 107.12 246.31 108.4 242.91 110.4L239.17 103.34C243.671 100.34 248.932 98.682 254.34 98.56C263.42 98.56 268.46 103.86 268.46 114.98V135.73H258.46V132.22C258.46 132.22 254.33 136.61 248.55 136.61C242 136.61 237.92 131.78 237.92 125.66ZM258.43 125.03V118.69C250.94 119.69 248 122.06 248 124.81C248 127.15 249.57 128.29 252.08 128.29C254.59 128.29 256.56 126.93 258.43 125V125.03Z" fill="#0C419A"/>
<path d="M356.26 84.48V102C355.141 100.832 353.785 99.9177 352.282 99.319C350.779 98.7204 349.166 98.4513 347.55 98.53C340.07 98.53 332.81 105.7 332.81 117.53C332.81 129.36 338.52 136.53 347.35 136.53C352.19 136.53 355.92 132.92 356.26 132.53V135.6H366.79V84.48H356.26ZM350.09 127.81C346.01 127.81 343.6 124.6 343.6 117.48C343.6 110.57 346.6 107.36 350 107.36C352.285 107.395 354.491 108.202 356.26 109.65V124.56C354.14 126.94 352.33 127.81 350.09 127.81Z" fill="#0C419A"/>
<path d="M374.86 88.51C374.86 85.21 377.42 82.89 380.95 82.89C384.48 82.89 387.05 85.21 387.05 88.51C387.05 91.81 384.49 94.13 380.95 94.13C377.41 94.13 374.86 91.78 374.86 88.51ZM375.69 99.44H386.22V135.73H375.69V99.44Z" fill="#0C419A"/>
<path d="M392.75 117.6C392.75 105.82 400.17 98.6 409.09 98.6C419.21 98.6 424.79 106.11 424.79 116.02C424.796 117.614 424.648 119.204 424.35 120.77H403.09C404.09 126.04 407.57 128.45 412.31 128.45C415 128.45 417.31 127.38 419.91 125.84L423.47 132.56C419.767 135.14 415.382 136.563 410.87 136.65C400.36 136.61 392.75 129.61 392.75 117.6ZM415.75 113.6C415.75 109.6 413.49 106.74 409.28 106.74C405.96 106.74 403.65 109.01 402.94 113.6H415.75Z" fill="#0C419A"/>
<path d="M187.62 64.44V24.44H198.15V64.87C198.15 67.18 199.15 67.87 200.05 67.87C200.484 67.8839 200.919 67.8367 201.34 67.73L202.6 75.66C200.917 76.3062 199.122 76.6088 197.32 76.55C190.09 76.59 187.62 71.78 187.62 64.44Z" fill="#0C419A"/>
<path d="M243.48 64.36L246.37 75.71H257.25L242.59 28H230.53L215.87 75.71H226.76L229.64 64.36H243.48ZM231.77 56L236.37 37.91H236.75L241.35 56H231.77Z" fill="#0C419A"/>
<path d="M259.37 71.52L264.1 64.82C267.32 67.31 270.3 68.64 273.27 68.64C276.4 68.64 277.76 67.41 277.76 65.51C277.76 63.12 274.24 62.04 270.58 60.57C266.23 58.85 261.18 55.9 261.18 49.9C261.18 43.15 266.56 38.54 274.75 38.54C279.33 38.5933 283.753 40.2171 287.28 43.14L282.56 49.59C280.04 47.72 277.56 46.5 275.08 46.5C272.36 46.5 271.02 47.58 271.02 49.39C271.02 51.71 274.35 52.6 278.02 53.96C282.52 55.66 287.59 58.25 287.59 64.89C287.59 71.53 282.52 76.59 273 76.59C268.024 76.4397 263.235 74.6583 259.37 71.52V71.52Z" fill="#0C419A"/>
<path d="M290.88 71.52L295.62 64.82C298.83 67.31 301.81 68.64 304.78 68.64C307.92 68.64 309.27 67.41 309.27 65.51C309.27 63.12 305.75 62.04 302.09 60.57C297.74 58.85 292.69 55.9 292.69 49.9C292.69 43.15 298.07 38.54 306.27 38.54C310.847 38.5955 315.266 40.2192 318.79 43.14L314.08 49.59C311.55 47.72 309.08 46.5 306.6 46.5C303.88 46.5 302.54 47.58 302.54 49.39C302.54 51.71 305.86 52.6 309.54 53.96C314.03 55.66 319.11 58.25 319.11 64.89C319.11 71.53 314.03 76.59 304.51 76.59C299.534 76.4375 294.746 74.6564 290.88 71.52V71.52Z" fill="#0C419A"/>
<path d="M365.39 39.45H375.92V44.61C377.92 40.61 382.8 39.18 385.28 39.24C386.726 39.1793 388.168 39.4282 389.51 39.97L388.42 49.75C386.985 49.1672 385.472 48.7999 383.93 48.66C381.822 48.7895 379.836 49.6968 378.358 51.2061C376.88 52.7154 376.015 54.7193 375.93 56.83V75.71H365.39V39.45Z" fill="#0C419A"/>
<path d="M430.15 39.45H440.68V44C443.68 41.07 446.68 38.53 451.54 38.53C459.27 38.53 462.54 44.1 462.54 53.17V75.71H452V54.56C452 49.34 450.62 47.7 447.58 47.7C444.94 47.7 442.95 48.96 440.64 51.23V75.71H430.15V39.45Z" fill="#0C419A"/>
<path d="M499 57.58C499 45.81 506.42 38.58 515.34 38.58C525.46 38.58 531.04 46.1 531.04 56C531.046 57.5938 530.899 59.1844 530.6 60.75H509.35C510.3 66.02 513.83 68.43 518.57 68.43C521.26 68.43 523.57 67.36 526.17 65.82L529.73 72.54C526.029 75.1241 521.643 76.5479 517.13 76.63C506.62 76.59 499 69.59 499 57.58ZM522 53.58C522 49.58 519.74 46.72 515.53 46.72C512.21 46.72 509.9 49 509.18 53.58H522Z" fill="#0C419A"/>
<path d="M391.79 65.65C391.79 58 398.2 53.75 412.26 52.24C412.04 49.06 410.04 47.1 406.18 47.1C403.18 47.1 400.18 48.38 396.78 50.38L393 43.32C397.501 40.3199 402.762 38.662 408.17 38.54C417.25 38.54 422.29 43.84 422.29 54.96V75.71H412.29V72.21C412.29 72.21 408.16 76.59 402.38 76.59C395.9 76.59 391.79 71.76 391.79 65.65ZM412.3 65V58.67C404.81 59.67 401.87 62.05 401.87 64.79C401.87 67.13 403.44 68.27 405.95 68.27C408.46 68.27 410.43 66.91 412.3 65Z" fill="#0C419A"/>
<path d="M212 24.25C209.82 24.25 206.85 25.91 206.85 28.99C206.842 29.5605 206.948 30.1268 207.162 30.6556C207.376 31.1845 207.694 31.6653 208.096 32.0696C208.499 32.474 208.978 32.7938 209.506 33.0102C210.034 33.2267 210.599 33.3354 211.17 33.33C211.273 33.3355 211.377 33.3355 211.48 33.33C211.37 36.49 208.48 38.33 207.03 39.08L209.81 42.96C219 40 220.91 24.31 212 24.25Z" fill="#0C419A"/>
<path d="M346.2 39.45V63.45C344.14 66.31 342.53 67.45 339.88 67.45C336.88 67.45 335.47 65.81 335.47 60.59V39.45H324.94V62.3C324.94 70.89 328.61 76.64 336.1 76.62C338.032 76.6472 339.947 76.2472 341.707 75.4485C343.467 74.6499 345.028 73.4723 346.28 72V75.74H356.72V39.45H346.2Z" fill="#0C419A"/>
<path d="M487 67.91C482.43 67.91 479 63.91 479 57.58C479 51.25 482.25 47.22 487.31 47.22C489.04 47.287 490.681 48.0007 491.91 49.22L496.91 42.31C494.097 39.8606 490.48 38.5328 486.75 38.58C476.94 38.58 468.38 45.58 468.38 57.58C468.38 69.58 475.89 76.58 485.81 76.58C490.112 76.6292 494.281 75.0912 497.52 72.26L493.64 65C491.53 66.72 489.41 67.91 487 67.91Z" fill="#0C419A"/>
<path d="M9.13999 89.11L7.89999 88C8.46081 87.4736 8.81541 86.7645 8.89999 86C8.89999 85.22 8.63999 84.82 8.14999 84.8C7.65999 84.78 7.43999 85.24 7.14999 85.95L6.55999 87C6.38145 87.4724 6.06017 87.8774 5.6408 88.1588C5.22143 88.4402 4.72482 88.5839 4.21999 88.57C3.86217 88.5259 3.51681 88.4106 3.20427 88.2309C2.89173 88.0512 2.61835 87.8107 2.40025 87.5236C2.18215 87.2366 2.02375 86.9087 1.9344 86.5594C1.84505 86.2102 1.82655 85.8465 1.87999 85.49C1.9248 84.4841 2.36293 83.536 3.09999 82.85L4.23999 83.85C3.8004 84.3115 3.53826 84.9137 3.49999 85.55C3.49999 86.2 3.71999 86.62 4.19999 86.64C4.67999 86.66 4.91999 86.13 5.19999 85.42L5.67999 84.42C5.84456 83.9405 6.16358 83.5292 6.58705 83.2505C7.01053 82.9718 7.51451 82.8415 8.01999 82.88C9.39999 82.94 10.54 84.15 10.45 86.13C10.3921 87.25 9.92606 88.3101 9.13999 89.11V89.11Z" fill="#0C419A"/>
<path d="M1.44 77.25L0 74.83L1.34 74L2.5 76.57L1.44 77.25ZM2.44 79.16L3.25 74L4.81 74.23L4.31 77.52L6 77.78L6.38 75L7.94 75.24L7.53 78L9.42 78.28L9.93 74.86L11.49 75.09L10.7 80.37L2.44 79.16Z" fill="#0C419A"/>
<path d="M7.76999 71.89C5.08999 71.21 3.99999 69 4.50999 67C4.63202 66.5476 4.84241 66.1238 5.12903 65.753C5.41566 65.3823 5.77285 65.072 6.17999 64.84L7.09999 66.1C6.85868 66.234 6.64615 66.4143 6.47457 66.6305C6.30298 66.8467 6.17569 67.0946 6.09999 67.36C5.81999 68.46 6.56999 69.59 8.17999 70C9.78999 70.41 11 69.9 11.3 68.72C11.3712 68.4281 11.3813 68.1246 11.3297 67.8287C11.2781 67.5327 11.1658 67.2505 11 67L12.39 66.33C12.6869 66.7462 12.8875 67.2232 12.9775 67.7265C13.0674 68.2298 13.0443 68.7467 12.91 69.24C12.34 71.24 10.48 72.59 7.76999 71.89Z" fill="#0C419A"/>
<path d="M10.4 63.1L6.23001 61.52L6.89001 59.76L11.25 61.41C12.77 61.99 13.48 61.71 13.81 60.84C14.14 59.97 13.81 59.26 12.28 58.68L7.93001 57L8.57001 55.3L12.75 56.89C15.36 57.89 16.09 59.37 15.33 61.38C14.57 63.39 13 64.09 10.4 63.1Z" fill="#0C419A"/>
<path d="M10.22 51.34L11.6 48.68C12.42 47.12 13.6 46.11 15.38 47.03C17.16 47.95 17.14 49.57 16.33 51.14L15.81 52.14L18.47 53.52L17.6 55.19L10.22 51.34ZM14.93 50.59C15.39 49.71 15.26 49.04 14.53 48.66C13.8 48.28 13.31 48.66 12.86 49.51L12.41 50.36L14.49 51.44L14.93 50.59ZM15.73 51.21L15.26 49.51L20.65 49.31L19.65 51.18L15.73 51.21Z" fill="#0C419A"/>
<path d="M15.11 42.32L16.11 40.74L23.11 45.25L22.11 46.83L15.11 42.32Z" fill="#0C419A"/>
<path d="M20.36 37.33L19 39.15L17.75 38.15L21.66 33.01L22.92 34.01L21.5 35.83L26.86 39.92L25.72 41.41L20.36 37.33Z" fill="#0C419A"/>
<path d="M23.66 30.6L27.21 26.79L28.37 27.86L26.1 30.3L27.32 31.44L29.25 29.36L30.41 30.44L28.47 32.52L29.88 33.82L32.23 31.29L33.39 32.37L29.75 36.28L23.66 30.6ZM23.89 28.44L24.07 25.63L25.63 25.73L25.14 28.47L23.89 28.44Z" fill="#0C419A"/>
<path d="M37.62 26.84L37.69 25.16C38.4475 25.2205 39.2029 25.0193 39.83 24.59C40.46 24.11 40.57 23.59 40.27 23.24C39.97 22.89 39.47 22.99 38.71 23.24L37.58 23.54C37.1038 23.711 36.5862 23.7297 36.0988 23.5935C35.6115 23.4574 35.1786 23.1731 34.86 22.78C34.6623 22.479 34.5266 22.1416 34.4608 21.7875C34.395 21.4335 34.4005 21.0699 34.4768 20.7179C34.5532 20.366 34.6989 20.0328 34.9055 19.7379C35.112 19.4429 35.3753 19.192 35.68 19C36.4749 18.3912 37.4753 18.1151 38.47 18.23V19.74C37.8369 19.7111 37.2139 19.9058 36.71 20.29C36.2 20.68 36.04 21.15 36.33 21.53C36.62 21.91 37.18 21.74 37.93 21.53L39.03 21.22C39.5012 21.0322 40.0217 21.007 40.5089 21.1483C40.9961 21.2895 41.4223 21.5893 41.72 22C42.57 23.09 42.39 24.74 40.83 25.95C39.9105 26.6409 38.7639 26.9588 37.62 26.84V26.84Z" fill="#0C419A"/>
<path d="M42.8 18.85C41.39 16.52 41.9 14.39 43.8 13.23C45.7 12.07 47.8 12.63 49.25 14.94C50.7 17.25 50.18 19.46 48.25 20.62C46.32 21.78 44.2 21.18 42.8 18.85ZM47.62 15.94C46.76 14.51 45.62 14.04 44.62 14.62C43.62 15.2 43.54 16.42 44.41 17.85C45.28 19.28 46.41 19.85 47.41 19.23C48.41 18.61 48.48 17.37 47.62 15.94V15.94Z" fill="#0C419A"/>
<path d="M51.7 13.65C50.53 11.15 51.51 8.93 53.42 8.04C53.8476 7.85158 54.3087 7.75095 54.7759 7.74408C55.2432 7.7372 55.707 7.82423 56.14 8L55.75 9.51C55.4963 9.39844 55.2222 9.34084 54.945 9.34084C54.6678 9.34084 54.3937 9.39844 54.14 9.51C53.14 9.99 52.71 11.28 53.42 12.79C54.13 14.3 55.28 14.91 56.42 14.39C56.6927 14.2499 56.9326 14.0536 57.124 13.814C57.3153 13.5744 57.4537 13.297 57.53 13L58.93 13.65C58.7938 14.1415 58.5499 14.5966 58.2161 14.9823C57.8823 15.368 57.4669 15.6746 57 15.88C55.09 16.77 52.88 16.19 51.7 13.65Z" fill="#0C419A"/>
<path d="M59.05 5.82L60.82 5.17L63.69 13L61.92 13.65L59.05 5.82Z" fill="#0C419A"/>
<path d="M66.54 3.34L68.72 2.76L73.37 10.13L71.45 10.64L69.32 6.85C68.88 6.11 68.41 5.21 67.98 4.43C67.98 5.34 68.04 6.33 67.98 7.2V11.55L66.12 12.04L66.54 3.34ZM66.93 8.28L70.8 7.28L71.17 8.69L67.3 9.69L66.93 8.28Z" fill="#0C419A"/>
<path d="M74.38 1.45L76.24 1.16L77.24 7.83L80.48 7.34L80.72 8.9L75.61 9.67L74.38 1.45Z" fill="#0C419A"/>
<path d="M82.48 0.33L87.68 0L87.78 1.57L84.46 1.79L84.57 3.45L87.4 3.27L87.5 4.85L84.67 5L84.79 6.91L88.24 6.69L88.34 8.27L83 8.64L82.48 0.33Z" fill="#0C419A"/>
<path d="M96.1 24.73C95.9396 24.4991 95.7299 24.3066 95.486 24.1665C95.2422 24.0265 94.9703 23.9423 94.69 23.92L93.76 23.83C93.11 23.65 79.13 23.88 75.85 25.99C75.5 23.77 74.74 21.09 70.91 20.27C68.21 19.7 62.39 22.27 64.34 28.08C64.513 28.5586 64.7787 28.9984 65.1219 29.3742C65.4651 29.75 65.879 30.0544 66.34 30.27C66.84 30.53 67.63 30.41 68.22 31.93C68.39 32.38 68.72 32.33 69.01 32.24C69.3 32.15 69.28 32.19 69.63 32.48C69.6946 32.5436 69.7769 32.5863 69.8661 32.6023C69.9553 32.6184 70.0473 32.6071 70.13 32.57C70.1726 32.6103 70.2229 32.6417 70.2779 32.6623C70.3328 32.6829 70.3913 32.6924 70.45 32.69C70.59 32.69 70.91 32.59 70.99 32.69C72.1 33.58 73.39 32.18 73.88 31.3L75.67 36.73C75.24 36.36 70.84 35.09 68.73 37.45C66.89 39.45 65.55 42.24 64 46.97C63.7917 47.576 63.4343 48.1198 62.9607 48.5514C62.4872 48.983 61.9126 49.2886 61.29 49.44C58.89 50.32 60.29 51.44 60.9 51.55C62.768 51.8154 64.6685 51.7409 66.51 51.33C67.4 50.89 66.74 48.84 67.73 47.57L69.92 44.74C69.9977 46.2015 69.7305 47.6608 69.14 49C68.42 50.76 66.23 51.69 65.58 52.53C64.43 54.01 67.07 54.13 67.77 53.89C69.52 53.29 70.77 53.32 71.5 52.89C72.5 52.31 71.79 50.74 72.12 50.1C73.02 48.32 76.12 44.43 76.47 43.81C76.519 43.7298 76.5624 43.6462 76.6 43.56C78.4205 44.1292 80.3235 44.3895 82.23 44.33C87.34 43.72 88.48 40.11 87.96 37.33C87.5106 35.4796 86.6222 33.7646 85.37 32.33C84 30.15 83.24 29 82.79 28.42C84.26 28.07 92.39 25.83 92.42 25.9C92.73 26.56 93.42 26.71 93.66 26.9C94.19 27.19 94.49 26.74 94.28 26.61C94.0606 26.4826 93.886 26.2905 93.78 26.06C94.3726 26.0538 94.9647 26.0973 95.55 26.19C96.12 26.27 96.5 25 96.1 24.73Z" fill="#0C419A"/>
<path fill-rule="evenodd" clip-rule="evenodd" d="M168.41 73.77C167.1 66.77 160.56 62.42 157.19 60.99C155.997 60.4641 154.763 60.036 153.5 59.71L152.38 59.34C152.62 57.82 154.38 57.7 155.44 55.53C158.44 49.37 152.28 45.03 147.72 46.03C145.57 46.51 144.07 47.28 143.72 48.92C143.54 49.81 142.85 49.84 141.72 51.02C141.36 51.4 142.16 52.02 142.29 52.28C142.29 52.35 142.09 52.68 142.01 53.05C141.93 53.42 142.01 53.36 142.01 53.41C141.863 53.6763 141.787 53.9759 141.79 54.28C141.625 54.6071 141.539 54.9685 141.539 55.335C141.539 55.7015 141.625 56.0629 141.79 56.39C142.249 57.0952 142.565 57.8834 142.72 58.71C142.72 58.9 142.72 59 141.88 58.71C141.67 58.65 133.42 56.22 132.5 55.6C131.58 54.98 123.3 46.04 122.4 44.3C121.91 43.3 121.4 42.71 121.13 42.73C119.2 42.85 122.53 46.33 120.66 45.14C120.18 44.83 118.74 43.82 118.66 43.74C118.3 43.45 118.39 43.59 118.13 43.17C117.976 42.8578 117.762 42.5791 117.5 42.35C117.29 42.2 117.16 42.16 117.01 42.2C116.86 42.24 116.76 42.49 116.69 42.51C116.58 42.4981 116.47 42.4981 116.36 42.51C115.88 42.63 116.24 43.86 116.36 44.43C116.825 45.727 117.407 46.9789 118.1 48.17C120.19 49.61 122.25 50.82 122.32 50.9C124.57 53.51 127.21 56.78 129.57 59.26C131.45 61.26 140.03 66.26 140.32 66.39C140.88 66.73 141.77 68.56 140.49 81.66C140.01 86.59 136.49 97.07 138.16 102.49C140.001 107.491 141.216 112.701 141.78 118C142.06 120.15 140.39 121.45 138 123.18C137.07 123.86 134.45 125.48 134.18 125.72C133.74 126.12 134.18 126.72 134.72 127C135.431 127.368 136.17 127.679 136.93 127.93C138.334 128.138 139.766 127.859 140.99 127.14C142.73 126.14 142.89 126 143.91 125.38C145.09 124.67 146.51 124.44 146.91 123.24C147.4 121.64 146.05 119.35 146.19 118.31C147.19 110.81 148.46 107.1 146.57 102.5C146.19 101.58 149.31 91.56 149.57 92.91C150.05 95.55 150.24 103.4 150.33 109.24C150.33 111.79 152.42 120.85 153.08 124.1C154.08 129.1 145.63 133.1 147.49 134.6C148.245 135.116 149.106 135.458 150.01 135.6C150.906 135.804 151.843 135.733 152.697 135.396C153.552 135.059 154.285 134.471 154.8 133.71C156.6 131.47 156.05 132.09 157.47 130.49C158.7 129.11 157.82 126.73 157.66 125.49C157.34 122.94 157.61 122.27 157.59 117.69C157.494 114.75 157.698 111.808 158.2 108.91C159.53 100.13 160.35 95.36 160.76 91.63V91.42C160.76 91.42 161.4 91.65 161.68 91.19C161.985 90.5652 162.158 89.8845 162.19 89.19C162.3 88.7 162.5 89.33 162.5 89.33C162.703 89.842 162.847 90.3754 162.93 90.92C162.79 91.667 162.555 92.393 162.23 93.08C161.89 94.08 162.75 94.22 162.97 94.3C164.203 93.6955 165.291 92.8326 166.16 91.77C166.425 91.0366 166.547 90.2593 166.52 89.48C166.403 87.7979 166.163 86.1267 165.8 84.48C166.6 81.89 168.73 75.52 168.41 73.77ZM162.41 83.89C162.13 85.14 162.05 83.95 160.87 88.58L161 87.92C161 87.27 161 86.62 161 85.92C161 80.18 156.61 67.92 159.27 70.53C159.27 70.53 162.47 72.76 163.09 74.46C163.61 75.81 163.43 79.48 162.41 83.89Z" fill="#0C419A"/>
<path d="M55.43 97.59C54.43 96.73 50.98 92 48.72 90.14C47.5797 88.8906 46.5398 87.5531 45.61 86.14C41.52 80.69 40.61 80.38 37.77 79.9C37.19 79.51 37.38 79.06 37.44 79.04C37.9296 78.9156 38.3873 78.6888 38.7827 78.3744C39.1782 78.06 39.5024 77.6653 39.734 77.2164C39.9656 76.7674 40.0992 76.2744 40.1261 75.7699C40.153 75.2655 40.0725 74.761 39.89 74.29C39.72 73.58 40.2 73.29 40.19 72.61C40.1767 71.6878 39.9937 70.7759 39.65 69.92C39.7632 69.5984 39.7923 69.2531 39.7346 68.9171C39.6768 68.5811 39.5341 68.2654 39.32 68C37.32 65.48 32.32 65.36 29.75 67.15C27.67 68.59 28.89 69.59 28.24 71.63C28.0687 72.1911 28.0575 72.7889 28.2077 73.3561C28.3579 73.9232 28.6634 74.4372 29.09 74.84C29.19 75.52 31.24 76.84 30.84 78.28C30.44 79.72 28 80.08 28.06 80.08C27.8018 80.1393 27.5528 80.2335 27.32 80.36C23.5 82.54 19.8 85.71 19.32 89.2C19.53 92.01 23.88 96.06 26.68 98.2C27.09 102.99 30.13 110.32 30.27 110.61C30.68 111.49 29.41 109.95 26.35 108.91C24.86 108.41 22.9 106.38 22.48 108.76C22.3 109.76 22.73 111.48 21.79 113.62C21.08 115.25 21.91 117.86 23.71 117.81C25.01 117.81 25.78 113.81 25.78 113.81C25.78 113.81 32.07 116.94 35.07 115.9C36.82 115.29 37.22 108.28 35.49 102.03C34.88 99.84 36.62 105.6 40.82 110.67C41.75 111.79 40.93 112.67 41.54 116.84C41.7117 117.726 41.7821 118.628 41.75 119.53C41.63 121.53 39.7 123.94 44.11 125.07C48.52 126.2 48.24 127.28 51.06 125.39C52.32 124.54 47.18 124.02 46.18 120.98C46.1216 120.764 46.0815 120.543 46.06 120.32C45.94 117.92 47.06 112.32 46.7 110.44C45.1 100.94 41.11 96.55 40.6 94.33C40.6 87.7 40.12 85.62 40.75 87.11C41.5968 88.6468 42.5631 90.1146 43.64 91.5V91.5C43.79 91.69 43.97 91.89 44.16 92.1C44.5149 92.5248 44.9176 92.9073 45.36 93.24C48.13 95.66 52.54 98.55 53.13 99.18C53.13 99.18 53.46 102.1 54.66 101.89C55.86 101.68 61.03 99.38 60.93 98.8C60.72 97.72 55.61 97.75 55.43 97.59ZM26.65 93.91C25.85 92.37 23.65 89.51 23.81 89.04C25.03 87.04 26.34 86.46 26.73 86.59C27.12 86.72 26.65 93.91 26.65 93.91Z" fill="#0C419A"/>
<path d="M143.1 151.33C142.87 151.21 139.76 150.06 137.01 145.66C135.78 143.66 126.54 126.57 125.28 123.23C122.78 116.62 103.28 104.73 102.46 104.04C101.88 103.57 101.95 102.42 102.17 101.67C103.81 96.11 103.17 91.13 103.48 90.38C104.28 88.49 105.48 85.74 104.59 83.95L102.59 80.77C102.59 80.77 112.9 84.5 115.29 84C117.35 83.56 127.73 76.43 128.29 76.12C129.73 75.39 133.18 76.47 136.67 72.67C137.98 71.24 137.03 70.75 136.79 71C136.671 70.8008 136.479 70.6559 136.255 70.5961C136.031 70.5363 135.792 70.5664 135.59 70.68C134.76 71.15 131.89 71.98 132.42 71.59C134.5 70.03 133.06 69.59 133.06 69.59C132.15 70.34 128.01 71.39 127.21 72.05C126.21 72.82 125.64 73.48 125.21 73.75C121.692 75.7248 117.92 77.2086 114 78.16C113.12 78.36 104.89 72.98 100.13 72.25C98.515 71.8823 96.8315 71.9478 95.25 72.44C93.55 72.92 93.68 70.44 94.94 69.87C95.6 69.56 96.7 69.36 97.11 68.52C97.2387 68.1878 97.2979 67.8327 97.2842 67.4767C97.2704 67.1207 97.1839 66.7713 97.03 66.45C97.0601 66.3539 97.0695 66.2525 97.0574 66.1525C97.0454 66.0525 97.0121 65.9562 96.96 65.87C96.84 65.58 96.86 65.73 96.9 65.44C96.94 65.15 96.77 65.06 96.7 64.82C96.6642 64.6339 96.6887 64.4412 96.77 64.27C97.77 63.43 97.34 63.04 97.21 62.92C97 62.66 95.46 62 95.33 61C95.1504 59.8944 94.8137 58.8202 94.33 57.81C94.23 57.51 94.06 55.65 93.24 54.9C92.24 53.99 90.13 52.9 85.58 54.1C84.12 54.5 84.39 55.2 80.73 55.88C76.36 56.69 73.95 63.19 74.34 65.88C74.66 68.06 76.53 67 76.45 67.97C76.33 69.48 76.17 71.97 79.37 72.9C80.06 73.1 84.25 72.43 85.84 72.71C85.84 72.71 87.14 72.82 86.49 74.12C86.17 74.76 81.97 76.42 80.94 76.86C78.18 78 71.13 89.57 69 90.66C67.7563 91.2546 66.5654 91.9538 65.44 92.75C62.54 94.57 59.71 96.75 58.15 96.75C56.07 96.62 54.38 97.62 52.99 100.75C52.58 101.67 52.82 102.14 53.57 102.33C53.7263 102.525 53.922 102.684 54.1444 102.798C54.3667 102.912 54.6106 102.977 54.86 102.99C55.48 103.57 56.18 103.2 56.71 102.92C58.34 102.03 58.71 101.33 59.35 101.07C60.94 100.55 70.35 96.92 72.44 95.3C75.62 93.56 82.02 86.99 83.44 86.92C84.74 86.8 88 89.68 87 95.22C86.65 97.11 84.29 100.52 83 102.51C80.4 106.45 82.41 109.89 81.9 110.72C79.21 115.11 75.9 120.98 70.32 126C68.15 127.41 63.57 127.73 61.15 128.44C55.59 130.07 49.67 134.06 45.44 136.44C44.04 137.22 42.7 135.54 40.94 135.34C39.18 135.14 39.03 137.8 38.13 140.21C37.85 140.95 37.73 141.3 36.39 144.27C35.86 145.43 34.47 149.01 35.87 150.49C37.15 152.27 40.19 146.69 42.54 143.97C43.79 142.53 44.54 142.06 47.25 141.44C48.97 141.04 62.6 137.34 71.6 135.37C71.82 135.37 72.06 135.28 72.32 135.21C84.01 132.21 96.13 116.91 96.32 116.98L116.17 126.82C118.17 127.9 118.17 131.77 120.56 136.17C121.98 138.83 124.07 141.17 132.56 149.48C133.65 150.55 132.75 152.32 133.25 153.97C133.75 155.62 134.61 155.77 136.2 155.64C137.79 155.51 139.01 155.28 140.49 155.18C142.38 155.07 141.87 155.27 144.08 155.6C145.15 155.76 147.6 156.11 149.33 154.39C152.4 151.29 146 152.85 143.1 151.33Z" fill="#0C419A"/>
<path d="M121.55 142.72C121.48 142.577 121.382 142.45 121.262 142.346C121.142 142.242 121.003 142.163 120.852 142.113C120.701 142.064 120.541 142.045 120.383 142.058C120.225 142.072 120.071 142.116 119.93 142.19V142.19C110.899 146.777 100.867 149.042 90.7415 148.782C80.6156 148.522 70.7138 145.744 61.93 140.7C61.7924 140.608 61.6375 140.545 61.4747 140.516C61.3119 140.486 61.1448 140.49 60.9837 140.527C60.8225 140.565 60.6707 140.635 60.5378 140.733C60.4048 140.832 60.2934 140.957 60.2105 141.1C60.1276 141.243 60.075 141.402 60.0558 141.566C60.0367 141.73 60.0514 141.897 60.0992 142.055C60.1469 142.214 60.2266 142.361 60.3334 142.487C60.4402 142.613 60.5718 142.716 60.72 142.79C69.8497 148.03 80.1397 150.916 90.6628 151.188C101.186 151.461 111.611 149.111 121 144.35C121.145 144.281 121.274 144.183 121.38 144.063C121.487 143.943 121.568 143.803 121.619 143.651C121.67 143.499 121.691 143.338 121.679 143.179C121.667 143.019 121.623 142.863 121.55 142.72V142.72Z" fill="#0C419A"/>
<path d="M35.7 63.29C35.5278 63.2861 35.358 63.2487 35.2 63.18C34.9086 63.047 34.6818 62.8039 34.5693 62.504C34.4568 62.2041 34.4679 61.8718 34.6 61.58C40.0191 49.5993 49.0418 39.6082 60.41 33C60.5468 32.9034 60.7022 32.8362 60.8663 32.8028C61.0305 32.7693 61.1997 32.7703 61.3635 32.8057C61.5272 32.841 61.6818 32.91 61.8174 33.0082C61.9531 33.1064 62.0669 33.2318 62.1517 33.3762C62.2364 33.5207 62.2902 33.6812 62.3097 33.8476C62.3292 34.0139 62.314 34.1825 62.265 34.3427C62.2159 34.5028 62.1342 34.651 62.0249 34.778C61.9156 34.9049 61.7811 35.0077 61.63 35.08C50.698 41.4423 42.022 51.0551 36.81 62.58C36.7104 62.7907 36.5534 62.9691 36.3571 63.0946C36.1608 63.2202 35.933 63.2879 35.7 63.29V63.29Z" fill="#0C419A"/>
<path d="M139 47.8C138.829 47.8002 138.661 47.7637 138.505 47.6929C138.35 47.6222 138.212 47.5189 138.1 47.39C128.492 36.5188 115.324 29.4278 100.96 27.39C100.802 27.3677 100.651 27.3145 100.514 27.2336C100.377 27.1527 100.257 27.0455 100.161 26.9183C100.066 26.7911 99.996 26.6463 99.9563 26.4922C99.9166 26.338 99.9077 26.1776 99.93 26.02C99.9523 25.8624 100.005 25.7108 100.086 25.5737C100.167 25.4367 100.274 25.3169 100.402 25.2213C100.529 25.1256 100.674 25.056 100.828 25.0163C100.982 24.9766 101.142 24.9677 101.3 24.99C116.235 27.1086 129.925 34.4837 139.91 45.79C140.061 45.9651 140.159 46.1797 140.191 46.4085C140.224 46.6373 140.191 46.8707 140.095 47.0811C139.999 47.2915 139.845 47.4701 139.651 47.5957C139.457 47.7213 139.231 47.7888 139 47.79V47.8Z" fill="#0C419A"/>
</svg>