<svg width="80" height="81" viewBox="0 0 80 81" fill="none" xmlns="http://www.w3.org/2000/svg">
<path d="M72.3484 50.0214C68.8163 58.0287 62.9017 65.3941 56.0359 70.6092C42.5485 80.8528 22.3405 77.801 11.3792 64.6434C6.22229 58.4527 3.89555 49.5908 7.00122 42.014C9.29898 36.4066 14.4956 33.2382 20.2327 32.2563C25.0716 31.4284 29.9927 32.2477 34.8557 31.8211C42.2906 31.1693 48.2257 27.0343 55.2259 25.0831C59.0635 24.0133 63.8795 23.7861 67.4798 25.8981C70.8977 27.9025 73.3042 31.5556 74.2078 35.4198C75.3484 40.297 74.3586 45.4648 72.3484 50.0214Z" fill="#A0B2EC" fill-opacity="0.16"/>
<path fill-rule="evenodd" clip-rule="evenodd" d="M51.6569 36.352C51.3003 46.4833 53.8707 59.0714 45.378 64.5721C36.5877 70.2655 24.4894 65.5706 16.0201 59.4336C9.1432 54.4506 8.09541 45.3169 7.12653 36.8548C6.34734 30.0494 7.44252 23.4487 11.248 17.7544C15.4794 11.4227 21.0065 4.98206 28.5934 4.7325C36.283 4.47955 42.5262 10.3506 47.0671 16.5761C51.2565 22.3196 51.9074 29.2325 51.6569 36.352Z" fill="#A0B2EC" fill-opacity="0.16"/>
<g filter="url(#filter0_d_34533_24135)">
<path d="M39.9984 64.1004C53.0324 64.1004 63.5984 53.5343 63.5984 40.5004C63.5984 27.4665 53.0324 16.9004 39.9984 16.9004C26.9645 16.9004 16.3984 27.4665 16.3984 40.5004C16.3984 53.5343 26.9645 64.1004 39.9984 64.1004Z" fill="white"/>
</g>
<path d="M39.9829 60.8623C51.2392 60.8623 60.3642 51.7372 60.3642 40.4809C60.3642 29.2246 51.2392 20.0996 39.9829 20.0996C28.7266 20.0996 19.6016 29.2246 19.6016 40.4809C19.6016 51.7372 28.7266 60.8623 39.9829 60.8623Z" fill="#0C419A"/>
<path fill-rule="evenodd" clip-rule="evenodd" d="M40.1145 37.5357C40.8422 37.5357 41.4322 36.9458 41.4322 36.218C41.4322 35.4903 40.8422 34.9004 40.1145 34.9004C39.3868 34.9004 38.7969 35.4903 38.7969 36.218C38.7969 36.9458 39.3868 37.5357 40.1145 37.5357ZM40.1145 46.1005C40.8422 46.1005 41.4322 45.5106 41.4322 44.7829L41.4322 40.8299C41.4322 40.1022 40.8422 39.5123 40.1145 39.5123C39.3868 39.5123 38.7969 40.1022 38.7969 40.8299V44.7829C38.7969 45.5106 39.3868 46.1005 40.1145 46.1005Z" fill="white"/>
<defs>
<filter id="filter0_d_34533_24135" x="16.3984" y="16.9004" width="47.2031" height="49.1992" filterUnits="userSpaceOnUse" color-interpolation-filters="sRGB">
<feFlood flood-opacity="0" result="BackgroundImageFix"/>
<feColorMatrix in="SourceAlpha" type="matrix" values="0 0 0 0 0 0 0 0 0 0 0 0 0 0 0 0 0 0 127 0" result="hardAlpha"/>
<feOffset dy="2"/>
<feComposite in2="hardAlpha" operator="out"/>
<feColorMatrix type="matrix" values="0 0 0 0 0 0 0 0 0 0 0 0 0 0 0 0 0 0 0.1 0"/>
<feBlend mode="normal" in2="BackgroundImageFix" result="effect1_dropShadow_34533_24135"/>
<feBlend mode="normal" in="SourceGraphic" in2="effect1_dropShadow_34533_24135" result="shape"/>
</filter>
</defs>
</svg>
