<svg width="371" height="403" viewBox="0 0 371 403" fill="none" xmlns="http://www.w3.org/2000/svg">
<rect x="304" y="145.844" width="12" height="12" transform="rotate(-29.1437 304 145.844)" fill="#F0B323"/>
<rect x="20" y="307.912" width="12" height="12" transform="rotate(-41.2495 20 307.912)" fill="#E11A81"/>
<rect x="305.754" y="388" width="12" height="12" transform="rotate(78.3816 305.754 388)" fill="#0C419A"/>
<rect x="72.4688" y="32" width="12" height="12" transform="rotate(60.7263 72.4688 32)" fill="#07CBA2"/>
<path opacity="0.5" fill-rule="evenodd" clip-rule="evenodd" d="M138.139 2.3511C174.495 10.6985 179.316 57.7663 200.982 88.1122C219.949 114.678 257.445 132.167 253.99 164.618C250.314 199.152 215.304 218.513 185.244 235.942C150.568 256.047 112.778 282.936 75.5467 268.079C36.6593 252.561 21.6987 207.673 12.2486 166.908C2.74842 125.926 -1.13659 80.9949 24.43 47.5756C50.4973 13.502 96.309 -7.25309 138.139 2.3511Z" fill="#A0B2EC" fill-opacity="0.2"/>
<path opacity="0.5" fill-rule="evenodd" clip-rule="evenodd" d="M335.833 347.484C309.937 367.982 274.747 345.254 241.785 343.423C212.929 341.82 180.085 358.045 159.577 337.691C137.751 316.031 143.757 281.123 148.357 250.704C153.664 215.614 156.008 174.617 186.886 157.118C219.138 138.841 258.436 153.356 291.834 169.396C325.409 185.521 358.604 207.713 367.54 243.88C376.65 280.756 365.627 323.9 335.833 347.484Z" fill="#A0B2EC" fill-opacity="0.2"/>
<path d="M74.2722 145.427C71.5325 133.07 70.2892 120.423 65.9891 108.445C64.4348 104.114 62.3465 99.4892 58.4402 96.8033C53.9788 93.7382 47.1844 95.8069 43.5091 99.1771C41.4738 101.042 38.7475 97.7584 40.7652 95.9057C45.1606 91.8736 51.9025 90.0997 57.66 91.7447C62.8894 93.2411 66.2265 98.3973 68.3908 103.03C74.4671 116.053 75.4136 130.895 78.4892 144.747C79.082 147.434 74.8654 148.106 74.2722 145.427Z" fill="#A0B2EC"/>
<path d="M35.7129 94.7746C36.2907 94.5093 36.902 94.4283 37.4933 94.4992C37.6688 94.3845 37.8525 94.2744 38.0521 94.1863L41.0144 92.8336C43.1253 91.869 45.6207 92.8005 46.5854 94.9115C47.55 97.0224 46.6227 99.518 44.5075 100.482L41.5453 101.835C41.3455 101.927 41.1468 101.994 40.9401 102.052C40.6065 102.542 40.1449 102.953 39.5672 103.218C37.8862 103.987 35.9041 103.246 35.1354 101.565L34.0593 99.2106C33.2949 97.5298 34.0362 95.5435 35.7129 94.7746Z" fill="#262939"/>
<path d="M32.2872 165.443C23.8774 154.125 13.7649 143.851 7.59441 131.019C5.28929 126.222 3.8316 120.676 5.65311 115.488C7.66198 109.761 14.2326 105.634 20.0506 104.962C22.7717 104.647 23.4737 108.861 20.7314 109.175C15.8275 109.742 10.2703 113.289 9.24218 118.409C8.31989 123.008 10.6373 127.813 12.7546 131.747C18.8645 143.103 27.9228 152.421 35.5626 162.704C37.1942 164.902 33.9269 167.65 32.2872 165.443Z" fill="#A0B2EC"/>
<path d="M22.501 100.404C21.9232 100.669 21.4619 101.076 21.1282 101.566C20.9257 101.624 20.7229 101.691 20.523 101.783L17.5608 103.136C15.4499 104.1 14.5184 106.596 15.483 108.707C16.4476 110.817 18.943 111.749 21.0582 110.785L24.0204 109.432C24.2203 109.34 24.4038 109.234 24.5792 109.119C25.1663 109.19 25.7821 109.105 26.3554 108.843C28.0364 108.075 28.7732 106.092 28.0088 104.412L26.9327 102.057C26.164 100.376 24.1819 99.6354 22.501 100.404Z" fill="#262939"/>
<rect width="5.34831" height="6.11721" transform="matrix(-0.817791 -0.575515 -0.575515 0.817791 100.09 112.816)" fill="#A0B2EC"/>
<path d="M97.1716 112.91C102.876 116.945 110.768 115.596 114.802 109.895C118.837 104.191 117.487 96.2985 111.787 92.2649C106.086 88.2314 98.1901 89.5795 94.1566 95.2799C90.1188 100.979 91.4685 108.871 97.1716 112.91Z" fill="#A0B2EC"/>
<path d="M99.0792 110.222C103.298 113.21 109.137 112.211 112.119 107.991C115.107 103.773 114.108 97.9331 109.89 94.9458C105.671 91.9586 99.8318 92.9571 96.8496 97.1773C93.8624 101.396 94.8609 107.235 99.0792 110.222Z" fill="#A0B2EC"/>
<path fill-rule="evenodd" clip-rule="evenodd" d="M110.388 106.765L110.387 106.767C108.082 110.028 103.568 110.801 100.305 108.491C97.0429 106.181 96.2711 101.665 98.581 98.4034L98.5822 98.4017C100.887 95.1399 105.401 94.3669 108.664 96.6772C111.926 98.9875 112.698 103.503 110.388 106.765ZM96.8496 97.1773C99.8318 92.9571 105.671 91.9586 109.89 94.9458C114.108 97.9331 115.107 103.773 112.119 107.991C109.137 112.211 103.298 113.21 99.0792 110.222C94.8609 107.235 93.8624 101.396 96.8496 97.1773Z" fill="#0C419A"/>
<path d="M103.898 103.413C104.355 103.737 104.992 103.628 105.316 103.171C105.64 102.713 105.533 102.078 105.073 101.753C104.616 101.429 103.979 101.538 103.655 101.995C103.334 102.454 103.44 103.089 103.898 103.413Z" fill="#0C419A"/>
<path fill-rule="evenodd" clip-rule="evenodd" d="M98.6144 129.352C95.7737 124.802 95.5889 119.008 98.4466 115.765L93.9897 111.838C88.7619 117.771 89.9292 126.658 93.5756 132.498C97.1715 138.257 102.911 142.105 107.855 145.42L108.026 145.535C121.548 154.615 134.737 164.052 141.52 177.768C144.828 184.456 145.956 192.574 144.633 199.901C143.313 207.214 139.619 213.471 133.549 216.932C128.227 219.966 121.614 220.643 114.998 219.957L114.996 219.956C96.0151 218.004 78.3697 204.743 72.0347 186.832L66.4344 188.813C73.5766 209.006 93.2514 223.691 114.388 225.865C121.68 226.621 129.691 225.969 136.491 222.093L136.491 222.093C144.451 217.553 148.929 209.542 150.479 200.956C152.026 192.384 150.721 182.972 146.845 175.135C139.261 159.8 124.698 149.575 111.338 140.603L111.336 140.602C106.146 137.122 101.463 133.915 98.6144 129.352Z" fill="#0C419A"/>
<path d="M36.7491 162.261C41.3467 167.44 45.3779 173.088 50.3618 177.92C54.6031 182.028 60.6278 186.154 66.748 184.146C82.8861 178.849 73.8789 158.322 72.8972 146.682C72.5542 142.6 78.8709 141.541 79.2204 145.666C79.8797 153.501 82.4401 161.024 82.6501 168.927C82.8795 177.574 79.3929 184.967 71.5536 189.063C55.9363 197.219 42.9576 179.773 34.377 169.356C33.546 168.351 32.7062 167.355 31.8398 166.379C29.0921 163.277 34.0172 159.181 36.7491 162.261Z" fill="#0C419A"/>
<path d="M153.414 234.605C149.246 227.676 141.66 223.022 133.465 221.134C128.262 219.936 122.649 219.788 117.499 221.489C109.056 224.277 103.1 231.453 96.0767 236.808C87.6797 243.213 77.5673 247.096 68.4267 252.469C59.2874 257.841 50.6102 265.502 48.4066 275.435C47.0956 281.337 48.2563 287.51 50.9348 292.841C56.1532 303.228 67.0212 310.423 78.9226 312.764C112.591 319.388 147.982 292.415 155.779 261.53C158.056 252.508 158.186 242.536 153.414 234.605Z" fill="#E11A81"/>
<path d="M324.908 369.166C327.353 368.544 329.425 366.696 330.726 364.418C331.552 362.972 332.101 361.309 332.057 359.617C331.983 356.844 330.375 354.42 329.407 351.84C328.25 348.756 327.999 345.386 327.216 342.173C326.434 338.959 324.926 335.678 322.157 334.127C320.512 333.204 318.563 332.996 316.73 333.316C313.158 333.941 310.031 336.54 308.262 339.884C303.255 349.346 308.128 362.343 316.653 367.45C319.143 368.942 322.11 369.877 324.908 369.166Z" fill="#E11A81"/>
<path fill-rule="evenodd" clip-rule="evenodd" d="M202.125 108.538C212.291 89.5251 219.151 63.0577 240.566 60.568C262.731 57.9911 281.508 78.3762 291.984 98.0903C300.491 114.098 293.948 132.53 287.883 149.606C283.005 163.339 274.729 174.911 262.11 182.195C248.079 190.294 231.464 197.377 216.7 190.693C201.735 183.919 195.274 166.814 192.404 150.638C189.756 135.715 194.981 121.898 202.125 108.538Z" fill="#0C419A"/>
<path fill-rule="evenodd" clip-rule="evenodd" d="M19.3332 22.2386C20.8621 19.3793 21.8939 15.3988 25.1145 15.0244C28.448 14.6368 31.2718 17.7026 32.8474 20.6674C34.1267 23.0748 33.1427 25.847 32.2305 28.415C31.4969 30.4803 30.2523 32.2207 28.3545 33.3161C26.2444 34.5341 23.7456 35.5995 21.5252 34.5943C19.2746 33.5754 18.3028 31.0029 17.8713 28.5702C17.4731 26.3259 18.2588 24.248 19.3332 22.2386Z" fill="#0C419A"/>
<path fill-rule="evenodd" clip-rule="evenodd" d="M221.095 224.984C236.412 228.478 238.444 248.178 247.572 260.879C255.563 271.998 271.361 279.318 269.906 292.9C268.357 307.354 253.606 315.458 240.941 322.752C226.331 331.167 210.409 342.421 194.723 336.203C178.339 329.708 172.036 310.92 168.054 293.858C164.051 276.706 162.414 257.9 173.186 243.913C184.169 229.651 203.471 220.964 221.095 224.984Z" fill="#A05BB6"/>
<path fill-rule="evenodd" clip-rule="evenodd" d="M145.435 34.8202C147.783 38.4087 144.45 42.665 143.838 46.8903C143.302 50.5893 145.02 55.0207 142.161 57.4141C139.118 59.9612 134.684 58.7593 130.814 57.7935C126.348 56.6795 121.087 55.8748 119.183 51.6811C117.193 47.3008 119.514 42.4145 121.964 38.3072C124.426 34.178 127.667 30.1722 132.434 29.4641C137.294 28.7421 142.733 30.6915 145.435 34.8202Z" fill="#A05BB6"/>
<path d="M274.013 114.126L123.111 81.0581C118.796 80.1124 114.53 82.8444 113.584 87.1603L69.6197 287.791C68.674 292.107 71.406 296.372 75.7218 297.318L226.624 330.386C230.939 331.331 235.205 328.599 236.151 324.283L280.115 123.653C281.061 119.337 278.329 115.071 274.013 114.126Z" fill="#A0B2EC"/>
<path d="M263.727 104.104L110.163 87.259C105.771 86.7773 101.82 89.9471 101.339 94.339L78.9427 298.506C78.4609 302.898 81.6307 306.849 86.0226 307.33L239.586 324.175C243.978 324.657 247.929 321.487 248.411 317.095L270.807 112.929C271.288 108.537 268.118 104.586 263.727 104.104Z" fill="#E7ECFA"/>
<g filter="url(#filter0_d_39623_274546)">
<path d="M252 84H98C93.5817 84 90 87.5817 90 92V297C90 301.418 93.5817 305 98 305H252C256.418 305 260 301.418 260 297V92C260 87.5817 256.418 84 252 84Z" fill="white"/>
</g>
<path d="M106 130.5C106 147.345 119.655 161 136.5 161C153.345 161 167 147.345 167 130.5C167 113.655 153.345 100 136.5 100C119.655 100 106 113.655 106 130.5Z" fill="#F9FAFF"/>
<path d="M127.549 121.737C127.549 116.676 131.766 112.549 137 112.549C142.234 112.549 146.451 116.676 146.451 121.737C146.451 126.798 142.234 130.925 137 130.925C131.766 130.925 127.549 126.798 127.549 121.737ZM137 128.128C140.603 128.128 143.549 125.28 143.549 121.737C143.549 118.194 140.603 115.346 137 115.346C133.397 115.346 130.451 118.194 130.451 121.737C130.451 125.28 133.397 128.128 137 128.128ZM121.676 147.078C122.109 143.805 123.643 140.74 126.069 138.377C128.966 135.557 132.897 133.97 137 133.97C141.103 133.97 145.034 135.557 147.931 138.377C150.357 140.74 151.891 143.805 152.324 147.078C152.42 147.795 151.824 148.451 151 148.451C150.217 148.451 149.522 147.799 149.365 146.914C148.926 144.44 147.713 142.141 145.868 140.345C143.514 138.052 140.323 136.767 137 136.767C133.677 136.767 130.486 138.052 128.132 140.345C126.287 142.141 125.074 144.44 124.635 146.914C124.478 147.799 123.783 148.451 123 148.451C122.176 148.451 121.58 147.795 121.676 147.078Z" fill="#0C419A" stroke="#0C419A" stroke-width="1.09737"/>
<rect x="183" y="131" width="61" height="28" rx="4" fill="#F9FAFF"/>
<path fill-rule="evenodd" clip-rule="evenodd" d="M215.803 136.87L210.771 146.789C210.388 147.545 209.612 148.021 208.764 148.021H205.874L204.255 152.737C203.587 154.68 200.878 154.785 200.062 152.9L195.065 141.359L192.648 146.699C192.284 147.504 191.482 148.021 190.598 148.021H188C187.31 148.021 186.75 147.461 186.75 146.771C186.75 146.081 187.31 145.521 188 145.521H190.437L193.02 139.813C193.825 138.035 196.359 138.055 197.135 139.847L202.1 151.315L203.568 147.04C203.88 146.131 204.735 145.521 205.696 145.521H208.611L213.83 135.232C214.716 133.487 217.254 133.626 217.943 135.458L223.231 149.521L224.461 146.834C224.828 146.034 225.627 145.521 226.507 145.521H230.593L232.651 141.464C233.484 139.821 235.831 139.821 236.664 141.464L238.722 145.521H241C241.69 145.521 242.25 146.081 242.25 146.771C242.25 147.461 241.69 148.021 241 148.021H238.569C237.721 148.021 236.946 147.545 236.562 146.789L234.658 143.034L232.753 146.789C232.369 147.545 231.594 148.021 230.746 148.021H226.667L225.254 151.108C224.421 152.927 221.806 152.836 221.102 150.963L215.803 136.87Z" fill="#BDCCF8"/>
<path d="M108 179C108 180.105 108.895 181 110 181C111.105 181 112 180.105 112 179C112 177.895 111.105 177 110 177C108.895 177 108 177.895 108 179Z" fill="#0C419A"/>
<path d="M118 179C118 180.105 118.895 181 120 181C121.105 181 122 180.105 122 179C122 177.895 121.105 177 120 177C118.895 177 118 177.895 118 179Z" fill="#0C419A"/>
<path d="M128 179C128 180.105 128.895 181 130 181C131.105 181 132 180.105 132 179C132 177.895 131.105 177 130 177C128.895 177 128 177.895 128 179Z" fill="#0C419A"/>
<path d="M138 179C138 180.105 138.895 181 140 181C141.105 181 142 180.105 142 179C142 177.895 141.105 177 140 177C138.895 177 138 177.895 138 179Z" fill="#0C419A"/>
<path d="M148 179C148 180.105 148.895 181 150 181C151.105 181 152 180.105 152 179C152 177.895 151.105 177 150 177C148.895 177 148 177.895 148 179Z" fill="#0C419A"/>
<path d="M158 179C158 180.105 158.895 181 160 181C161.105 181 162 180.105 162 179C162 177.895 161.105 177 160 177C158.895 177 158 177.895 158 179Z" fill="#0C419A"/>
<path d="M168 179C168 180.105 168.895 181 170 181C171.105 181 172 180.105 172 179C172 177.895 171.105 177 170 177C168.895 177 168 177.895 168 179Z" fill="#0C419A"/>
<path d="M178 179C178 180.105 178.895 181 180 181C181.105 181 182 180.105 182 179C182 177.895 181.105 177 180 177C178.895 177 178 177.895 178 179Z" fill="#0C419A"/>
<path d="M188 179C188 180.105 188.895 181 190 181C191.105 181 192 180.105 192 179C192 177.895 191.105 177 190 177C188.895 177 188 177.895 188 179Z" fill="#0C419A"/>
<path d="M198 179C198 180.105 198.895 181 200 181C201.105 181 202 180.105 202 179C202 177.895 201.105 177 200 177C198.895 177 198 177.895 198 179Z" fill="#0C419A"/>
<path d="M208 179C208 180.105 208.895 181 210 181C211.105 181 212 180.105 212 179C212 177.895 211.105 177 210 177C208.895 177 208 177.895 208 179Z" fill="#0C419A"/>
<path d="M218 179C218 180.105 218.895 181 220 181C221.105 181 222 180.105 222 179C222 177.895 221.105 177 220 177C218.895 177 218 177.895 218 179Z" fill="#0C419A"/>
<path d="M228 179C228 180.105 228.895 181 230 181C231.105 181 232 180.105 232 179C232 177.895 231.105 177 230 177C228.895 177 228 177.895 228 179Z" fill="#0C419A"/>
<path d="M238 179C238 180.105 238.895 181 240 181C241.105 181 242 180.105 242 179C242 177.895 241.105 177 240 177C238.895 177 238 177.895 238 179Z" fill="#0C419A"/>
<rect x="106" y="199" width="16" height="8" rx="4" fill="#0C419A"/>
<path d="M201 200H133C131.343 200 130 201.343 130 203C130 204.657 131.343 206 133 206H201C202.657 206 204 204.657 204 203C204 201.343 202.657 200 201 200Z" fill="#BDCCF8"/>
<rect x="106" y="217" width="16" height="8" rx="4" fill="#0C419A"/>
<path d="M182 218H133C131.343 218 130 219.343 130 221C130 222.657 131.343 224 133 224H182C183.657 224 185 222.657 185 221C185 219.343 183.657 218 182 218Z" fill="#BDCCF8"/>
<rect x="106" y="235" width="16" height="8" rx="4" fill="#0C419A"/>
<path d="M201 236H133C131.343 236 130 237.343 130 239C130 240.657 131.343 242 133 242H201C202.657 242 204 240.657 204 239C204 237.343 202.657 236 201 236Z" fill="#BDCCF8"/>
<rect x="106" y="253" width="16" height="8" rx="4" fill="#0C419A"/>
<path d="M166 254H133C131.343 254 130 255.343 130 257C130 258.657 131.343 260 133 260H166C167.657 260 169 258.657 169 257C169 255.343 167.657 254 166 254Z" fill="#BDCCF8"/>
<rect x="106" y="271" width="16" height="8" rx="4" fill="#0C419A"/>
<path d="M201 272H133C131.343 272 130 273.343 130 275C130 276.657 131.343 278 133 278H201C202.657 278 204 276.657 204 275C204 273.343 202.657 272 201 272Z" fill="#BDCCF8"/>
<path d="M193.505 121C192.751 120.372 192.01 119.767 191.281 119.147C189.35 117.506 187.449 115.826 185.742 113.937C185.046 113.166 184.362 112.358 183.826 111.469C182.904 109.937 182.808 108.23 183.271 106.519C183.827 104.464 185.053 102.978 187.053 102.277C189.206 101.522 191.583 102.348 193.021 104.303C193.185 104.527 193.331 104.766 193.511 105.036C193.586 104.919 193.65 104.818 193.715 104.717C194.595 103.336 195.792 102.408 197.385 102.107C199.262 101.753 200.869 102.348 202.202 103.716C204.002 105.563 204.521 108.669 203.437 111.036C203.01 111.968 202.356 112.74 201.687 113.493C199.735 115.688 197.543 117.616 195.316 119.504C194.729 120.001 194.13 120.484 193.505 121Z" fill="#E11A81"/>
<path d="M241 100H213C211.343 100 210 101.343 210 103C210 104.657 211.343 106 213 106H241C242.657 106 244 104.657 244 103C244 101.343 242.657 100 241 100Z" fill="#BDCCF8"/>
<path d="M231 115H213C211.343 115 210 116.343 210 118C210 119.657 211.343 121 213 121H231C232.657 121 234 119.657 234 118C234 116.343 232.657 115 231 115Z" fill="#BDCCF8"/>
<path d="M127.025 113.084C126.023 112.859 125.151 112.245 124.601 111.378C124.051 110.511 123.868 109.461 124.091 108.458L128.401 89.184C128.499 88.7465 128.933 88.4712 129.37 88.569C129.807 88.6668 130.083 89.1007 129.985 89.5382L125.676 108.813C125.545 109.395 125.652 110.005 125.971 110.508C126.291 111.012 126.798 111.368 127.38 111.498C127.962 111.628 128.572 111.522 129.075 111.202C129.579 110.883 129.935 110.376 130.065 109.794L136.342 81.7177C136.525 80.7946 136.34 79.8366 135.826 79.0482C135.312 78.2599 134.51 77.7037 133.592 77.4984C132.673 77.293 131.711 77.4548 130.91 77.9493C130.11 78.4437 129.534 79.2316 129.306 80.1446L128.74 82.6793C128.642 83.1168 128.208 83.3921 127.77 83.2943C127.333 83.1965 127.058 82.7626 127.155 82.3251L127.722 79.7904C128.048 78.4613 128.882 77.3128 130.044 76.5914C131.207 75.87 132.607 75.6332 133.942 75.9318C135.277 76.2304 136.443 77.0406 137.188 78.1885C137.933 79.3364 138.198 80.7306 137.926 82.0719L131.649 110.148C131.424 111.15 130.811 112.022 129.944 112.573C129.077 113.123 128.027 113.307 127.025 113.084Z" fill="#0C419A"/>
<path d="M253.47 294.654L224.792 311.391C222.856 312.521 220.788 312.593 220.187 311.553L218.671 308.927C218.082 307.907 219.124 306.195 221.014 305.077L250.05 287.902L250.677 291.498C250.72 291.743 250.829 291.958 251 292.133L253.47 294.654Z" fill="#0C419A"/>
<path fill-rule="evenodd" clip-rule="evenodd" d="M266.239 307.197C250.51 302.983 241.176 286.815 245.39 271.087C249.605 255.358 265.772 246.024 281.501 250.238C297.23 254.453 306.564 270.62 302.349 286.349C298.135 302.077 281.968 311.412 266.239 307.197ZM267.28 303.315C253.696 299.675 245.635 285.713 249.274 272.129C252.914 258.546 266.877 250.485 280.46 254.124C294.044 257.764 302.105 271.726 298.465 285.31C294.825 298.894 280.863 306.955 267.28 303.315Z" fill="#0C419A"/>
<path d="M299.903 285.828C296.026 300.295 281.155 308.882 266.689 305.005C252.222 301.129 243.636 286.257 247.512 271.79C251.389 257.324 266.26 248.738 280.726 252.615C295.193 256.491 303.779 271.362 299.903 285.828Z" fill="white" fill-opacity="0.5"/>
<path d="M297.522 285.052C294.022 298.115 280.594 305.867 267.532 302.367C254.469 298.867 246.717 285.439 250.217 272.376C253.717 259.315 267.145 251.562 280.207 255.062C293.27 258.562 301.022 271.99 297.522 285.052Z" fill="#A0B2EC" fill-opacity="0.4"/>
<path opacity="0.6" fill-rule="evenodd" clip-rule="evenodd" d="M281.19 263.341C274.488 259.129 266.348 258.789 259.991 262.135C266.914 256.31 276.801 255.36 284.727 259.764L281.19 263.341ZM285.071 266.391C292.989 274.081 294.226 286.154 287.623 294.192C284.721 297.724 280.761 299.922 276.462 300.743C281.984 300.163 287.285 297.498 291.083 292.875C298.556 283.779 297.463 270.453 288.771 262.65L285.071 266.391Z" fill="white"/>
<path d="M252.466 39.2444C253.717 35.7677 257.549 33.963 261.026 35.2135L305.473 51.2006C308.949 52.4511 310.754 56.2833 309.503 59.76L301.412 82.2563C300.161 85.733 296.329 87.5377 292.852 86.2872L248.405 70.3001C244.929 69.0496 243.124 65.2174 244.375 61.7406L252.466 39.2444Z" fill="#F0B323"/>
<path d="M252.466 39.2444C253.717 35.7677 257.549 33.963 261.026 35.2135L305.473 51.2006C308.949 52.4511 310.754 56.2833 309.503 59.76L301.412 82.2563C300.161 85.733 296.329 87.5377 292.852 86.2872L248.405 70.3001C244.929 69.0496 243.124 65.2174 244.375 61.7406L252.466 39.2444Z" fill="black" fill-opacity="0.2"/>
<path d="M265.177 11.2101C266.046 8.79431 268.708 7.54034 271.124 8.40927L308.865 21.9841L307.355 26.1826C306.486 28.5984 307.74 31.2612 310.155 32.1301L316.703 34.4852L299.727 81.683C298.858 84.0988 296.195 85.3528 293.779 84.4838L249.491 68.5538C247.075 67.6849 245.821 65.0221 246.69 62.6063L265.177 11.2101Z" fill="white"/>
<path d="M248.7 70.7409L292.989 86.6709C295.404 87.5398 298.067 86.2859 298.936 83.8701L318.209 30.2868C319.078 27.871 317.824 25.2082 315.409 24.3393L271.12 8.40927C268.704 7.54034 266.042 8.79431 265.173 11.2101L245.899 64.7934C245.031 67.2092 246.284 69.872 248.7 70.7409Z" fill="white"/>
<rect x="269.461" y="16.459" width="22.0804" height="4.6485" rx="2.32425" transform="rotate(19.7831 269.461 16.459)" fill="#0C419A"/>
<rect x="260.414" y="41.6113" width="44.7418" height="3.48638" rx="1.74319" transform="rotate(19.7831 260.414 41.6113)" fill="#BDCCF8"/>
<rect x="251.762" y="65.668" width="20.3372" height="3.48638" rx="1.74319" transform="rotate(19.7831 251.762 65.668)" fill="#BDCCF8"/>
<path d="M270.45 27.3124C270.613 27.371 270.688 27.5583 270.612 27.7138L269.658 29.6571C269.568 29.8419 269.693 30.0598 269.898 30.0748L272.18 30.2426C272.356 30.2555 272.48 30.4216 272.442 30.5943L272.152 31.9236C272.116 32.087 271.95 32.1866 271.789 32.1412L270.013 31.6404C269.792 31.578 269.589 31.7856 269.657 32.0056L270.262 33.9702C270.314 34.1405 270.202 34.3175 270.026 34.3432L268.65 34.5434C268.488 34.5669 268.339 34.4522 268.319 34.2898L268.105 32.4627C268.076 32.2183 267.775 32.1181 267.605 32.2965L266.397 33.5678C266.282 33.6883 266.09 33.6882 265.975 33.5674L264.99 32.5277C264.866 32.3967 264.89 32.1855 265.04 32.0857L266.746 30.9543C266.936 30.8278 266.913 30.5408 266.704 30.4471L265.033 29.6967C264.878 29.6273 264.816 29.441 264.897 29.2924L265.545 28.1056C265.629 27.9524 265.828 27.907 265.97 28.0089L267.782 29.3104C267.95 29.4309 268.186 29.3428 268.234 29.1419L268.736 27.0389C268.776 26.8705 268.954 26.7744 269.117 26.833L270.45 27.3124Z" fill="#BDCCF8"/>
<path d="M281.93 31.4413C282.093 31.4999 282.169 31.6872 282.093 31.8427L281.139 33.786C281.048 33.9708 281.173 34.1887 281.378 34.2037L283.66 34.3715C283.837 34.3844 283.961 34.5505 283.923 34.7232L283.633 36.0525C283.597 36.2159 283.431 36.3155 283.27 36.2701L281.494 35.7693C281.272 35.7069 281.069 35.9145 281.137 36.1345L281.742 38.0991C281.795 38.2695 281.683 38.4465 281.506 38.4721L280.13 38.6723C279.968 38.6958 279.819 38.5812 279.8 38.4187L279.585 36.5916C279.556 36.3472 279.256 36.247 279.086 36.4254L277.877 37.6967C277.762 37.8172 277.57 37.8171 277.456 37.6963L276.47 36.6566C276.346 36.5256 276.37 36.3144 276.521 36.2146L278.226 35.0832C278.417 34.9567 278.393 34.6698 278.184 34.576L276.513 33.8256C276.359 33.7562 276.296 33.5699 276.377 33.4213L277.026 32.2345C277.109 32.0813 277.308 32.036 277.45 32.1378L279.262 33.4393C279.43 33.5598 279.666 33.4717 279.714 33.2708L280.216 31.1678C280.257 30.9994 280.434 30.9033 280.597 30.9619L281.93 31.4413Z" fill="#BDCCF8"/>
<path d="M293.414 35.5722C293.577 35.6308 293.653 35.8181 293.577 35.9736L292.623 37.9169C292.533 38.1016 292.657 38.3195 292.863 38.3346L295.145 38.5023C295.321 38.5153 295.445 38.6814 295.407 38.8541L295.117 40.1834C295.081 40.3468 294.915 40.4464 294.754 40.401L292.978 39.9002C292.756 39.8377 292.554 40.0454 292.621 40.2653L293.226 42.23C293.279 42.4003 293.167 42.5773 292.991 42.603L291.615 42.8031C291.453 42.8267 291.303 42.712 291.284 42.5496L291.069 40.7225C291.041 40.478 290.74 40.3779 290.57 40.5562L289.361 41.8275C289.247 41.9481 289.054 41.9479 288.94 41.8272L287.955 40.7874C287.831 40.6565 287.855 40.4452 288.005 40.3455L289.71 39.214C289.901 39.0876 289.877 38.8006 289.669 38.7069L287.998 37.9565C287.843 37.8871 287.78 37.7008 287.862 37.5521L288.51 36.3653C288.594 36.2121 288.793 36.1668 288.934 36.2687L290.747 37.5702C290.914 37.6907 291.151 37.6026 291.199 37.4017L291.701 35.2987C291.741 35.1302 291.919 35.0341 292.082 35.0928L293.414 35.5722Z" fill="#BDCCF8"/>
<path d="M304.895 39.7011C305.058 39.7597 305.134 39.947 305.057 40.1025L304.104 42.0458C304.013 42.2305 304.138 42.4484 304.343 42.4635L306.625 42.6312C306.802 42.6442 306.925 42.8103 306.888 42.983L306.597 44.3123C306.562 44.4757 306.396 44.5753 306.235 44.5299L304.458 44.0291C304.237 43.9666 304.034 44.1743 304.102 44.3942L304.707 46.3589C304.759 46.5292 304.648 46.7062 304.471 46.7319L303.095 46.932C302.933 46.9556 302.784 46.8409 302.765 46.6785L302.55 44.8514C302.521 44.6069 302.22 44.5068 302.051 44.6851L300.842 45.9564C300.727 46.077 300.535 46.0768 300.42 45.9561L299.435 44.9163C299.311 44.7854 299.335 44.5742 299.486 44.4744L301.191 43.3429C301.382 43.2165 301.358 42.9295 301.149 42.8358L299.478 42.0854C299.324 42.016 299.261 41.8297 299.342 41.681L299.99 40.4942C300.074 40.341 300.273 40.2957 300.415 40.3976L302.227 41.6991C302.395 41.8196 302.631 41.7315 302.679 41.5306L303.181 39.4276C303.221 39.2591 303.399 39.163 303.562 39.2217L304.895 39.7011Z" fill="#BDCCF8"/>
<path d="M292.706 86.5589L252.523 39.084L244.271 62.0276C243.02 65.5044 244.825 69.3366 248.302 70.5871L292.706 86.5589Z" fill="#F0B323"/>
<path d="M292.706 86.5589L252.523 39.084L244.271 62.0276C243.02 65.5044 244.825 69.3366 248.302 70.5871L292.706 86.5589Z" fill="black" fill-opacity="0.05"/>
<path d="M248.346 70.6023L309.562 59.5996L301.31 82.5433C300.059 86.02 296.227 87.8247 292.75 86.5741L248.346 70.6023Z" fill="#F0B323"/>
<path d="M248.346 70.6023L309.562 59.5996L301.31 82.5433C300.059 86.02 296.227 87.8247 292.75 86.5741L248.346 70.6023Z" fill="black" fill-opacity="0.05"/>
<path d="M293.413 86.8133L280.736 63.3771C279.115 60.3805 275.501 59.0806 272.343 60.3582L247.642 70.3501L293.413 86.8133Z" fill="#F0B323"/>
<defs>
<filter id="filter0_d_39623_274546" x="75.041" y="76.5205" width="199.918" height="250.918" filterUnits="userSpaceOnUse" color-interpolation-filters="sRGB">
<feFlood flood-opacity="0" result="BackgroundImageFix"/>
<feColorMatrix in="SourceAlpha" type="matrix" values="0 0 0 0 0 0 0 0 0 0 0 0 0 0 0 0 0 0 127 0" result="hardAlpha"/>
<feOffset dy="7.47951"/>
<feGaussianBlur stdDeviation="7.47951"/>
<feColorMatrix type="matrix" values="0 0 0 0 0.0470588 0 0 0 0 0.254902 0 0 0 0 0.603922 0 0 0 0.1 0"/>
<feBlend mode="normal" in2="BackgroundImageFix" result="effect1_dropShadow_39623_274546"/>
<feBlend mode="normal" in="SourceGraphic" in2="effect1_dropShadow_39623_274546" result="shape"/>
</filter>
</defs>
</svg>
